{"title":"The Crazies R5 LiNE XViD  - IMAGiNE","uid":5501429,"size":1520757612,"categoryP":"video","categoryS":"movies","magnet":"?xt=urn:btih:4dd0e7e7ef383223c0b95956a2cb2855853842b8&amp;dn=The+Crazies+R5+LiNE+XViD++-+IMAGiNE&amp;tr=udp%3A%2F%2Ftracker.openbittorrent.com%3A80&amp;tr=udp%3A%2F%2Fopen.demonii.com%3A1337&amp;tr=udp%3A%2F%2Ftracker.coppersurfer.tk%3A6969&amp;tr=udp%3A%2F%2Fexodus.desync.com%3A6969","seeders":0,"leechers":0,"uploader":"IwannaFan2","files":3,"time":1271555977,"description":"Filename:\nThe Crazies R5 LiNE XViD  - IMAGiNE\n &lt;a href=&quot;\nhttp://www.imdb.com/title/tt0455407/&quot; rel=&quot;nofollow&quot; target=&quot;_NEW&quot;&gt;\nhttp://www.imdb.com/title/tt0455407/&lt;/a&gt;\n\nDETAILS:\n\nVideo\nFormat                           : MPEG-4 Visual\nFormat profile                   : Streaming Video@L1\nFormat settings, BVOP            : Yes\nFormat settings, QPel            : No\nFormat settings, GMC             : No warppoints\nFormat settings, Matrix          : Default\nMuxing mode                      : Packed bitstream\nCodec ID                         : XVID\nCodec ID/Hint                    : XviD\nDuration                         : 1h 36mn\nBit rate                         : 1 920 Kbps\nWidth                            : 704 pixels\nHeight                           : 304 pixels\nDisplay aspect ratio             : 2.35\nFrame rate                       : 25.000 fps\nResolution                       : 24 bits\nColorimetry                      : 4:2:0\nScan type                        : Progressive\nBits/(Pixel*Frame)               : 0.359\nStream size                      : 1.30 GiB (93%)\nWriting library                  : XviD 50\n\nAudio\nFormat                           : MPEG Audio\nFormat version                   : Version 1\nFormat profile                   : Layer 3\nCodec ID                         : 55\nCodec ID/Hint                    : MP3\nDuration                         : 1h 36mn\nBit rate mode                    : Constant\nBit rate                         : 128 Kbps\nChannel(s)                       : 2 channels\nSampling rate                    : 44.1 KHz\nResolution                       : 16 bits\nStream size                      : 88.6 MiB (6%)\nAlignment                        : Split accross interleaves\nInterleave, duration             : 40 ms (1.00 video frame)\nInterleave, preload duration     : 500 ms\n\n\n\nNOTES:\n\nIMAGiNE bringing you another release.....Thr Crazies R5\nWell for this we used Rx's audio (thanks) and also the audio off the russian source for the intro and end credits.\nThe video is ripped from the dvd9 we were sent (thanks).\nDone the usually stuff...slightly increase in the brightness and colours and also a slight change on the rgb colours,nothing\nto major done to it.\n\nEnjoy\n\n","torrent":{"xt":"urn:btih:4dd0e7e7ef383223c0b95956a2cb2855853842b8","amp;dn":"The+Crazies+R5+LiNE+XViD++-+IMAGiNE","amp;tr":["udp%3A%2F%2Ftracker.openbittorrent.com%3A80","udp%3A%2F%2Fopen.demonii.com%3A1337","udp%3A%2F%2Ftracker.coppersurfer.tk%3A6969","udp%3A%2F%2Fexodus.desync.com%3A6969"],"infoHash":"4dd0e7e7ef383223c0b95956a2cb2855853842b8","infoHashBuffer":{"type":"Buffer","data":[77,208,231,231,239,56,50,35,192,185,89,86,162,203,40,85,133,56,66,184]},"announce":[],"urlList":[]}}